 
http://www.imdb.com/title/tt0770828/


A young boy learns that he has extraordinary powers and is not of this Earth. As a young man, he journeys to discover where he came from and what he was sent here to do. But the hero in him must emerge if he is to save the world from annihilation and become the symbol of hope for all mankind. 



Director:
 Zack Snyder 

Writers:
 David S. Goyer (screenplay), David S. Goyer (story)

Stars:
 Henry Cavill, Amy Adams, Michael Shannon 

Genres:
  Action |  Adventure |  Fantasy |  Sci-Fi 

Country:
 USA | Canada | UK 

Language:
 English 


Format                                   : AVI
Format/Info                              : Audio Video Interleave
File size                                : 734 MiB
Duration                                 : 2h 12mn
Overall bit rate                         : 774 Kbps

Video
ID                                       : 0
Format                                   : MPEG-4 Visual
Format profile                           : Advanced Simple@L5
Format settings, BVOP                    : 2
Format settings, QPel                    : No
Format settings, GMC                     : No warppoints
Format settings, Matrix                  : Default (H.263)
Codec ID                                 : XVID
Codec ID/Hint                            : XviD
Duration                                 : 2h 12mn
Bit rate                                 : 632 Kbps
Width                                    : 640 pixels
Height                                   : 256 pixels
Display aspect ratio                     : 2.500
Frame rate                               : 29.970 fps
Color space                              : YUV
Chroma subsampling                       : 4:2:0
Bit depth                                : 8 bits
Scan type                                : Progressive
Compression mode                         : Lossy
Bits/(Pixel*Frame)                       : 0.129
Stream size                              : 600 MiB (82%)
Writing library                          : XviD 1.2.1 (UTC 2008-12-04)

Audio
ID                                       : 1
Format                                   : MPEG Audio
Format version                           : Version 1
Format profile                           : Layer 3
Mode                                     : Joint stereo
Mode extension                           : MS Stereo
Codec ID                                 : 55
Codec ID/Hint                            : MP3
Duration                                 : 1h 35mn
Source duration                          : 2h 12mn
Bit rate mode                            : Constant
Bit rate                                 : 128 Kbps
Channel(s)                               : 2 channels
Sampling rate                            : 48.0 KHz
Compression mode                         : Lossy
Stream size                              : 121 MiB (17%)
Alignment                                : Aligned on interleaves
Interleave, duration                     : 24 ms (0.72 video frame)
Writing library                          : LAME3.98.4UU☺♫╨▒X╨æ / ╨â♥




    	http://addpix.net/viewer.php?file=54125202498398876130.jpg
    	http://addpix.net/viewer.php?file=50188728740708630360.jpg
    	http://addpix.net/viewer.php?file=21350980292717006953.jpg
    	http://addpix.net/viewer.php?file=95466556133882213590.jpg
    	http://addpix.net/viewer.php?file=21105276566562141484.jpg
    	http://addpix.net/viewer.php?file=38406354356597869485.jpg